<?xml version="1.0" standalone="no"?>
<!DOCTYPE svg PUBLIC "-//W3C//DTD SVG 20010904//EN"
 "http://www.w3.org/TR/2001/REC-SVG-20010904/DTD/svg10.dtd">
<svg version="1.0" xmlns="http://www.w3.org/2000/svg"
 width="1200.000000pt" height="1200.000000pt" viewBox="0 0 1200.000000 1200.000000"
 preserveAspectRatio="xMidYMid meet">

<g transform="translate(0.000000,1200.000000) scale(0.100000,-0.100000)"
fill="#000000" stroke="none">
<path d="M4610 10077 c-50 -25 -50 -25 -48 -568 3 -483 4 -508 22 -528 18 -20
29 -21 213 -21 l193 0 0 -140 0 -140 -448 0 c-437 0 -449 0 -470 -20 -22 -20
-22 -26 -22 -285 l0 -264 -82 -69 c-46 -38 -393 -320 -773 -627 -1184 -958
-1315 -1066 -1324 -1084 -9 -16 -81 -585 -81 -637 0 -32 34 -64 66 -64 18 0
69 32 158 98 72 54 137 102 144 106 9 6 12 -331 12 -1668 l0 -1676 -255 0
c-242 0 -256 -1 -275 -20 -19 -19 -20 -33 -20 -283 0 -263 0 -264 23 -285 l23
-22 4423 0 4422 0 24 25 25 24 0 254 c0 242 -1 256 -21 281 l-20 26 -260 0
-259 0 0 1670 c0 919 2 1670 5 1670 3 0 64 -45 137 -101 145 -110 172 -119
210 -68 19 25 19 28 -20 349 l-39 323 -30 26 c-16 14 -133 110 -259 212 -253
204 -575 466 -1269 1029 -253 205 -492 398 -532 429 l-72 56 0 273 -1 273 -25
24 -24 25 -451 0 -450 0 0 140 0 140 195 0 c182 0 196 1 215 20 19 19 20 33
20 539 0 496 -1 520 -19 542 l-19 24 -1469 2 c-1165 2 -1473 0 -1493 -10z
m2860 -557 l0 -420 -1380 0 -1380 0 0 420 0 420 1380 0 1380 0 0 -420z m-430
-700 l0 -140 -950 0 -950 0 0 140 0 140 950 0 950 0 0 -140z m941 -458 c1 -92
2 -178 2 -192 0 -14 0 -1296 -1 -2850 l-2 -2825 -535 3 -535 2 0 1427 0 1427
-22 23 -21 23 -773 0 c-425 0 -780 -3 -789 -6 -46 -18 -45 30 -45 -1485 0
-1292 -1 -1421 -16 -1415 -9 3 -249 6 -535 6 l-519 0 0 3013 c0 1658 2 3016 4
3018 2 2 855 3 1895 1 l1891 -2 1 -168z m-3955 -898 c-4 -10 -66 -60 -272
-219 -57 -44 -247 -193 -424 -331 -165 -129 -294 -228 -870 -664 -184 -139
-372 -282 -416 -317 -45 -35 -84 -63 -86 -63 -2 0 7 87 20 193 22 183 24 193
51 217 15 14 144 119 287 235 142 115 484 392 759 615 584 474 724 587 854
692 l96 78 3 -212 c1 -117 0 -218 -2 -224z m4294 284 c80 -64 213 -172 296
-240 316 -256 945 -766 1144 -928 65 -52 180 -146 257 -208 l139 -112 23 -191
c12 -105 21 -193 19 -194 -2 -2 -57 38 -124 88 -66 51 -156 119 -200 152 -121
92 -776 601 -984 765 -102 80 -314 246 -472 369 l-288 223 0 215 0 214 23 -18
c12 -10 88 -71 167 -135z m-4270 -2868 l0 -2390 -115 0 -115 0 0 1854 c0 1099
-4 1865 -9 1879 -5 13 -23 29 -39 36 -25 10 -35 10 -60 -3 -16 -8 -32 -26 -36
-38 -3 -13 -6 -857 -6 -1875 l0 -1853 -115 0 -115 0 0 1720 c0 1707 0 1720
-20 1740 -12 12 -33 20 -54 20 -71 0 -66 146 -66 -1762 l0 -1718 -115 0 -115
0 -2 1576 -3 1576 -24 19 c-32 26 -67 24 -96 -6 l-25 -24 0 -1571 0 -1570
-115 0 -115 0 0 1425 0 1426 -25 24 c-30 30 -54 31 -89 4 l-26 -20 0 -1430 0
-1429 -115 0 -115 0 0 1724 0 1725 298 232 c163 128 335 263 382 300 96 76
365 283 527 406 59 45 200 152 312 238 113 85 206 155 208 155 2 0 3 -1075 3
-2390z m4302 2208 c117 -89 276 -209 353 -268 77 -58 273 -207 435 -330 162
-123 391 -297 508 -388 l212 -165 0 -1723 0 -1724 -115 0 -115 0 0 1425 0
1426 -25 24 c-30 31 -56 32 -92 1 l-28 -24 -2 -1424 -3 -1423 -112 0 -113 0
-5 1578 c-5 1548 -5 1579 -24 1593 -28 20 -66 17 -93 -8 l-23 -21 0 -1574 0
-1573 -115 0 -115 0 0 1718 c0 1715 0 1718 -20 1740 -27 29 -80 29 -106 1 -19
-21 -19 -64 -19 -1738 l-1 -1716 -114 0 -115 0 -3 1867 -2 1867 -27 21 c-32
25 -69 20 -95 -12 -17 -19 -18 -124 -18 -1884 l0 -1864 -115 0 -115 0 0 2380
c0 1309 2 2380 5 2380 2 0 100 -73 217 -162z m-1584 -1953 l3 -115 -681 0
-680 0 0 118 0 117 678 -2 677 -2 3 -116z m2 -370 l0 -115 -680 0 -680 0 0
115 0 115 680 0 680 0 0 -115z m0 -1271 l0 -1004 -305 0 -305 0 0 705 c0 692
0 705 -20 725 -29 29 -72 30 -102 3 -17 -15 -18 -62 -18 -725 l0 -708 -305 0
-305 0 0 1005 0 1005 673 2 c369 2 675 2 680 0 4 -2 7 -455 7 -1008z m3640
-1304 l0 -160 -202 0 c-112 0 -2056 -1 -4321 -3 l-4117 -2 0 163 0 162 4320 0
4320 0 0 -160z"/>
<path d="M5584 9751 c-49 -22 -97 -78 -113 -130 -6 -21 -11 -70 -11 -109 0
-175 140 -278 312 -228 105 30 168 140 154 268 -14 139 -99 218 -236 218 -42
0 -79 -7 -106 -19z m176 -76 c16 -9 37 -30 47 -48 22 -41 24 -160 3 -201 -49
-94 -182 -97 -232 -5 -23 43 -25 157 -3 200 32 62 121 87 185 54z"/>
<path d="M4990 9520 l0 -240 45 0 45 0 0 105 0 105 100 0 100 0 0 -105 0 -105
45 0 45 0 0 240 0 240 -45 0 -45 0 0 -95 0 -95 -100 0 -100 0 0 95 0 95 -45 0
-45 0 0 -240z"/>
<path d="M5970 9723 l0 -38 72 0 73 0 3 -202 2 -203 45 0 45 0 2 203 3 202 73
0 72 0 0 38 0 37 -195 0 -195 0 0 -37z"/>
<path d="M6420 9520 l0 -240 185 0 185 0 0 40 0 40 -135 0 -135 0 0 65 0 65
120 0 120 0 0 40 0 40 -120 0 -121 0 3 58 3 57 128 0 127 0 0 38 0 37 -180 0
-180 0 0 -240z"/>
<path d="M6880 9520 l0 -240 170 0 170 0 0 40 0 40 -120 0 -120 0 0 200 0 200
-50 0 -50 0 0 -240z"/>
<path d="M4452 8127 c-22 -23 -22 -29 -22 -309 l0 -287 26 -20 c26 -20 39 -21
306 -21 l279 0 24 25 25 24 0 281 0 281 -25 24 -24 25 -284 0 c-283 0 -284 0
-305 -23z m488 -303 l0 -184 -185 0 -185 0 0 178 c0 98 3 182 7 186 4 3 87 6
185 6 l178 -2 0 -184z"/>
<path d="M5341 8131 c-30 -30 -33 -64 -29 -338 3 -250 3 -252 27 -277 l24 -26
278 0 278 0 28 24 28 24 3 253 c4 274 1 310 -29 340 -18 18 -35 19 -304 19
-269 0 -286 -1 -304 -19z m487 -308 l2 -183 -185 0 -185 0 0 178 c0 98 3 182
7 186 4 3 86 5 182 4 l176 -3 3 -182z"/>
<path d="M6221 8124 c-20 -26 -21 -39 -21 -306 l0 -279 25 -24 24 -25 279 0
c267 0 280 1 306 21 l26 20 0 288 c0 275 -1 288 -20 309 -20 22 -25 22 -310
22 l-289 0 -20 -26z m497 -301 l2 -183 -185 0 -185 0 0 186 0 185 183 -3 182
-3 3 -182z"/>
<path d="M7112 8130 c-22 -20 -22 -25 -22 -310 l0 -289 26 -20 c26 -20 39 -21
306 -21 l279 0 23 24 24 23 0 281 c1 266 0 282 -19 307 l-20 25 -288 0 c-275
0 -288 -1 -309 -20z m488 -305 l0 -185 -185 0 -185 0 0 178 c0 98 3 181 6 185
3 3 86 6 185 7 l179 1 0 -186z"/>
<path d="M4450 7190 c-19 -19 -20 -33 -20 -305 l0 -286 25 -24 24 -25 270 0
c177 0 278 4 294 11 44 20 47 44 47 328 0 256 -1 269 -21 295 l-20 26 -290 0
c-276 0 -290 -1 -309 -20z m490 -305 l0 -185 -185 0 -185 0 0 185 0 185 185 0
185 0 0 -185z"/>
<path d="M5334 7189 c-18 -20 -19 -40 -19 -305 0 -282 0 -284 23 -306 22 -23
27 -23 301 -26 l279 -3 28 25 29 24 0 285 c0 266 -1 286 -19 306 -19 20 -27
21 -311 21 -284 0 -292 -1 -311 -21z m496 -304 l0 -185 -185 0 -185 0 0 185 0
185 185 0 185 0 0 -185z"/>
<path d="M6221 7184 c-20 -26 -21 -39 -21 -295 0 -147 4 -279 9 -292 17 -44
47 -48 340 -45 l273 3 19 24 c18 22 19 43 19 307 0 271 -1 285 -20 304 -19 19
-33 20 -309 20 l-290 0 -20 -26z m499 -299 l0 -185 -185 0 -185 0 0 185 0 185
185 0 185 0 0 -185z"/>
<path d="M7110 7190 c-19 -19 -20 -33 -20 -308 0 -281 1 -289 21 -308 19 -18
42 -19 292 -22 289 -3 316 0 336 44 7 17 11 115 11 293 0 256 -1 269 -21 295
l-20 26 -290 0 c-276 0 -290 -1 -309 -20z m490 -305 l0 -185 -185 0 -185 0 0
185 0 185 185 0 185 0 0 -185z"/>
<path d="M4455 6255 l-25 -24 0 -286 c0 -272 1 -286 20 -305 19 -19 33 -20
309 -20 l290 0 20 26 c20 26 21 39 21 296 0 274 -3 297 -39 325 -12 9 -91 12
-294 13 l-278 0 -24 -25z m485 -310 l0 -185 -185 0 -185 0 0 185 0 185 185 0
185 0 0 -185z"/>
<path d="M5360 6267 c-48 -24 -50 -42 -48 -335 l3 -274 24 -19 c22 -18 43 -19
311 -19 279 0 287 1 306 21 18 20 19 40 19 306 l0 285 -28 24 -28 24 -267 0
c-194 0 -274 -4 -292 -13z m470 -322 l0 -185 -185 0 -185 0 0 185 0 185 185 0
185 0 0 -185z"/>
<path d="M6238 6265 c-15 -9 -30 -26 -33 -38 -3 -12 -5 -147 -3 -300 3 -262 4
-279 22 -293 16 -11 75 -14 308 -14 275 0 289 1 308 20 19 19 20 33 20 304 0
264 -1 285 -19 307 l-19 24 -279 2 c-232 2 -282 0 -305 -12z m482 -320 l0
-185 -185 0 -185 0 0 185 0 185 185 0 185 0 0 -185z"/>
<path d="M7133 6270 c-12 -5 -26 -18 -32 -29 -7 -13 -11 -121 -11 -300 0 -268
1 -282 20 -301 19 -19 33 -20 309 -20 l290 0 20 26 c20 26 21 39 21 295 0 284
-3 308 -47 328 -29 13 -537 14 -570 1z m467 -325 l0 -185 -185 0 -185 0 0 185
0 185 185 0 185 0 0 -185z"/>
<path d="M4456 5319 l-26 -20 0 -288 0 -288 23 -21 c23 -22 30 -22 306 -22
l282 0 24 25 25 24 0 281 0 281 -25 24 -24 25 -279 0 c-267 0 -280 -1 -306
-21z m484 -314 l0 -185 -182 2 -183 3 -3 183 -2 182 185 0 185 0 0 -185z"/>
<path d="M7116 5319 l-26 -20 0 -288 0 -288 23 -21 c23 -22 29 -22 309 -22
l287 0 21 27 c20 26 21 34 18 311 l-3 284 -24 19 c-22 18 -42 19 -301 19 -265
0 -278 -1 -304 -21z m484 -314 l0 -185 -182 2 -183 3 -3 183 -2 182 185 0 185
0 0 -185z"/>
<path d="M4456 4379 l-26 -20 0 -289 0 -289 26 -20 c26 -20 39 -21 306 -21
l279 0 24 25 25 24 0 281 0 281 -25 24 -24 25 -279 0 c-267 0 -280 -1 -306
-21z m484 -305 l0 -184 -185 0 -185 0 0 178 c0 98 3 182 7 186 4 3 87 6 185 6
l178 -2 0 -184z"/>
<path d="M7112 4380 c-22 -20 -22 -25 -22 -310 l0 -289 26 -20 c26 -20 39 -21
306 -21 l279 0 24 25 25 24 0 281 0 281 -25 24 -24 25 -284 0 c-271 0 -284 -1
-305 -20z m488 -305 l0 -185 -185 0 -185 0 0 178 c0 98 3 182 7 185 3 4 87 7
185 7 l178 0 0 -185z"/>
<path d="M4450 3440 c-19 -19 -20 -33 -20 -304 0 -265 1 -285 19 -307 l19 -24
292 0 292 0 19 24 c18 22 19 42 19 301 0 265 -1 278 -21 304 l-20 26 -290 0
c-276 0 -290 -1 -309 -20z m490 -305 l0 -185 -185 0 -185 0 0 185 0 185 185 0
185 0 0 -185z"/>
<path d="M7106 3438 c-14 -19 -16 -66 -16 -309 0 -278 1 -286 21 -305 19 -17
42 -19 283 -22 285 -4 325 2 344 43 8 18 12 111 12 294 0 256 -1 269 -21 295
l-20 26 -294 0 c-292 0 -294 0 -309 -22z m494 -303 l0 -185 -185 0 -185 0 0
185 0 185 185 0 185 0 0 -185z"/>
</g>
</svg>
